<svg width="131" height="131" viewBox="0 0 131 131" fill="none" xmlns="http://www.w3.org/2000/svg">
<path fill-rule="evenodd" clip-rule="evenodd" d="M65.6373 0.0078125C101.537 0.0078125 130.671 29.1423 130.671 65.0418C130.671 100.896 101.537 130.031 65.6373 130.031C29.7378 130.031 0.648438 100.896 0.648438 65.0418C0.648438 29.1423 29.7378 0.0078125 65.6373 0.0078125Z" fill="#FF3F2F"/>
<path d="M98.3015 60.5034C99.5773 60.5034 100.667 60.9548 101.569 61.8574C102.472 62.7601 102.923 63.8493 102.923 65.1251C102.923 66.4009 102.472 67.4901 101.569 68.3927C100.667 69.2954 99.5773 69.7468 98.3015 69.7468H97.7599L93.6077 93.6494C93.4151 94.7567 92.8855 95.6714 92.019 96.3935C91.1524 97.1157 90.1655 97.4767 89.0582 97.4767H42.8416C41.7343 97.4767 40.7474 97.1157 39.8808 96.3935C39.0142 95.6714 38.4847 94.7567 38.2921 93.6494L34.1398 69.7468H33.5982C32.3225 69.7468 31.2332 69.2954 30.3306 68.3927C29.4279 67.4901 28.9766 66.4009 28.9766 65.1251C28.9766 63.8493 29.4279 62.7601 30.3306 61.8574C31.2332 60.9548 32.3225 60.5034 33.5982 60.5034H98.3015ZM46.4883 89.3888C47.1142 89.3407 47.6377 89.0699 48.059 88.5764C48.4802 88.083 48.6668 87.5233 48.6186 86.8975L47.4632 71.8771C47.4151 71.2512 47.1443 70.7277 46.6508 70.3064C46.1574 69.8852 45.5977 69.6986 44.9719 69.7468C44.346 69.7949 43.8225 70.0657 43.4012 70.5592C42.98 71.0526 42.7934 71.6123 42.8416 72.2381L43.997 87.2585C44.0451 87.8603 44.2918 88.3658 44.7372 88.775C45.1825 89.1842 45.706 89.3888 46.3078 89.3888H46.4883ZM61.3282 87.078V72.0576C61.3282 71.4317 61.0995 70.8901 60.6422 70.4328C60.1848 69.9754 59.6432 69.7468 59.0174 69.7468C58.3915 69.7468 57.8499 69.9754 57.3926 70.4328C56.9352 70.8901 56.7066 71.4317 56.7066 72.0576V87.078C56.7066 87.7038 56.9352 88.2454 57.3926 88.7028C57.8499 89.1602 58.3915 89.3888 59.0174 89.3888C59.6432 89.3888 60.1848 89.1602 60.6422 88.7028C61.0995 88.2454 61.3282 87.7038 61.3282 87.078ZM75.1932 87.078V72.0576C75.1932 71.4317 74.9645 70.8901 74.5072 70.4328C74.0498 69.9754 73.5082 69.7468 72.8824 69.7468C72.2565 69.7468 71.7149 69.9754 71.2576 70.4328C70.8002 70.8901 70.5715 71.4317 70.5715 72.0576V87.078C70.5715 87.7038 70.8002 88.2454 71.2576 88.7028C71.7149 89.1602 72.2565 89.3888 72.8824 89.3888C73.5082 89.3888 74.0498 89.1602 74.5072 88.7028C74.9645 88.2454 75.1932 87.7038 75.1932 87.078ZM87.9028 87.2585L89.0582 72.2381C89.1063 71.6123 88.9198 71.0526 88.4985 70.5592C88.0773 70.0657 87.5538 69.7949 86.9279 69.7468C86.3021 69.6986 85.7424 69.8852 85.2489 70.3064C84.7555 70.7277 84.4847 71.2512 84.4365 71.8771L83.2811 86.8975C83.233 87.5233 83.4195 88.083 83.8408 88.5764C84.262 89.0699 84.7856 89.3407 85.4114 89.3888H85.592C86.1937 89.3888 86.7173 89.1842 87.1626 88.775C87.6079 88.3658 87.8546 87.8603 87.9028 87.2585ZM46.1634 43.3166L42.8054 58.1926H38.0394L41.6861 42.2695C42.1435 40.1513 43.2147 38.4241 44.8996 37.0882C46.5846 35.7522 48.5103 35.0843 50.6767 35.0843H56.7066C56.7066 34.4584 56.9352 33.9168 57.3926 33.4595C57.8499 33.0021 58.3915 32.7734 59.0174 32.7734H72.8824C73.5082 32.7734 74.0498 33.0021 74.5072 33.4595C74.9645 33.9168 75.1932 34.4584 75.1932 35.0843H81.223C83.3894 35.0843 85.3151 35.7522 87.0001 37.0882C88.6851 38.4241 89.7563 40.1513 90.2136 42.2695L93.8604 58.1926H89.0943L85.7364 43.3166C85.4716 42.2575 84.924 41.3909 84.0935 40.7169C83.2631 40.0429 82.3062 39.7059 81.223 39.7059H75.1932C75.1932 40.3318 74.9645 40.8734 74.5072 41.3307C74.0498 41.7881 73.5082 42.0168 72.8824 42.0168H59.0174C58.3915 42.0168 57.8499 41.7881 57.3926 41.3307C56.9352 40.8734 56.7066 40.3318 56.7066 39.7059H50.6767C49.5935 39.7059 48.6367 40.0429 47.8062 40.7169C46.9758 41.3909 46.4282 42.2575 46.1634 43.3166Z" fill="white"/>
</svg>
