<svg width="496" height="338" viewBox="0 0 496 338" fill="none" xmlns="http://www.w3.org/2000/svg">
<path d="M0 120.95V35.6702H43.6146C54.8229 35.6702 63.1884 37.7413 68.7113 41.8834C74.2342 45.9444 76.9957 51.3048 76.9957 57.9648C76.9957 62.3506 75.818 66.2085 73.4627 69.5385C71.1885 72.7873 67.9398 75.3863 63.7164 77.3356C59.5742 79.2036 54.6198 80.1376 48.8533 80.1376L51.2898 74.2898C57.3001 74.2898 62.5387 75.2239 67.0057 77.0919C71.4728 78.8787 74.9246 81.5183 77.3612 85.0108C79.879 88.422 81.1379 92.6047 81.1379 97.5591C81.1379 104.95 78.1328 110.717 72.1225 114.859C66.1935 118.92 57.5031 120.95 46.0512 120.95H0ZM23.8784 103.529H44.102C48.2441 103.529 51.3711 102.838 53.4828 101.458C55.6757 99.9957 56.7721 97.8028 56.7721 94.8789C56.7721 91.955 55.6757 89.8027 53.4828 88.422C51.3711 86.96 48.2441 86.229 44.102 86.229H22.1728V69.5385H40.4471C44.5081 69.5385 47.5538 68.8482 49.5842 67.4674C51.6147 66.0867 52.63 64.0156 52.63 61.2542C52.63 58.4927 51.6147 56.4623 49.5842 55.1628C47.5538 53.782 44.5081 53.0917 40.4471 53.0917H23.8784V103.529Z" fill="#FF3F2F"/>
<path d="M132.861 120.95V108.646L131.277 105.6V82.9397C131.277 79.2848 130.14 76.4828 127.866 74.5335C125.673 72.503 122.14 71.4878 117.267 71.4878C114.099 71.4878 110.891 72.0157 107.642 73.0716C104.393 74.0462 101.632 75.4269 99.3579 77.2137L91.5609 61.4978C95.2969 59.0613 99.764 57.1932 104.962 55.8937C110.241 54.513 115.48 53.8226 120.678 53.8226C131.399 53.8226 139.683 56.2998 145.531 61.2542C151.46 66.1273 154.424 73.8025 154.424 84.2798V120.95H132.861ZM113.368 122.047C108.089 122.047 103.622 121.153 99.967 119.366C96.3122 117.58 93.5101 115.143 91.5609 112.057C89.6928 108.97 88.7588 105.519 88.7588 101.701C88.7588 97.6403 89.774 94.1479 91.8045 91.224C93.9162 88.2189 97.1244 85.9448 101.429 84.4016C105.734 82.7772 111.297 81.965 118.12 81.965H133.714V94.0261H121.287C117.551 94.0261 114.911 94.6352 113.368 95.8535C111.906 97.0718 111.175 98.6962 111.175 100.727C111.175 102.757 111.947 104.382 113.49 105.6C115.033 106.818 117.145 107.427 119.825 107.427C122.343 107.427 124.617 106.818 126.648 105.6C128.759 104.3 130.302 102.351 131.277 99.752L134.445 108.28C133.226 112.828 130.83 116.28 127.257 118.635C123.764 120.91 119.135 122.047 113.368 122.047Z" fill="#FF3F2F"/>
<path d="M212.041 53.8226C217.158 53.8226 221.787 54.8785 225.929 56.9902C230.071 59.0207 233.32 62.1882 235.676 66.4928C238.112 70.7974 239.33 76.3609 239.33 83.1833V120.95H216.183V86.96C216.183 82.2493 215.208 78.8381 213.259 76.7264C211.391 74.5335 208.751 73.437 205.34 73.437C202.904 73.437 200.67 74.0056 198.64 75.1426C196.609 76.1985 195.025 77.8635 193.888 80.1376C192.751 82.4118 192.183 85.3762 192.183 89.0311V120.95H169.035V30.5534H192.183V73.6807L186.822 68.1984C189.34 63.4065 192.792 59.8328 197.178 57.4775C201.564 55.0409 206.518 53.8226 212.041 53.8226Z" fill="#FF3F2F"/>
<path d="M253.863 120.95V54.9191H277.011V120.95H253.863ZM265.437 47.6094C261.214 47.6094 257.802 46.4317 255.203 44.0763C252.604 41.721 251.305 38.7971 251.305 35.3047C251.305 31.8123 252.604 28.8884 255.203 26.533C257.802 24.1777 261.214 23 265.437 23C269.66 23 273.072 24.1371 275.671 26.4112C278.27 28.6041 279.569 31.4468 279.569 34.9392C279.569 38.5941 278.27 41.6398 275.671 44.0763C273.153 46.4317 269.742 47.6094 265.437 47.6094Z" fill="#FF3F2F"/>
<path d="M324.338 145.681C318.003 145.681 311.952 144.95 306.186 143.488C300.5 142.027 295.627 139.874 291.566 137.032L299.973 120.828C302.734 123.021 306.145 124.727 310.206 125.945C314.348 127.245 318.369 127.894 322.267 127.894C328.521 127.894 333.029 126.514 335.79 123.752C338.552 121.072 339.932 117.133 339.932 111.935V104.138L341.151 85.6199L341.029 66.9801V54.9191H363.08V108.889C363.08 121.397 359.709 130.656 352.968 136.666C346.227 142.676 336.684 145.681 324.338 145.681ZM320.318 117.539C314.47 117.539 309.069 116.239 304.115 113.64C299.242 110.96 295.302 107.265 292.297 102.554C289.373 97.7622 287.911 92.1174 287.911 85.6199C287.911 79.1224 289.373 73.5183 292.297 68.8076C295.302 64.0156 299.242 60.3202 304.115 57.7211C309.069 55.1221 314.47 53.8226 320.318 53.8226C325.922 53.8226 330.714 54.9597 334.694 57.2338C338.673 59.4268 341.678 62.8786 343.709 67.5893C345.821 72.3 346.877 78.3102 346.877 85.6199C346.877 92.9296 345.821 98.9398 343.709 103.651C341.678 108.361 338.673 111.854 334.694 114.128C330.714 116.402 325.922 117.539 320.318 117.539ZM325.8 99.1429C328.562 99.1429 330.998 98.5743 333.11 97.4373C335.303 96.3002 337.008 94.7164 338.227 92.686C339.526 90.6555 340.176 88.3001 340.176 85.6199C340.176 82.9397 339.526 80.5843 338.227 78.5538C337.008 76.5234 335.303 74.9802 333.11 73.9244C330.998 72.7873 328.562 72.2188 325.8 72.2188C323.039 72.2188 320.562 72.7873 318.369 73.9244C316.176 74.9802 314.429 76.5234 313.13 78.5538C311.912 80.5843 311.303 82.9397 311.303 85.6199C311.303 88.3001 311.912 90.6555 313.13 92.686C314.429 94.7164 316.176 96.3002 318.369 97.4373C320.562 98.5743 323.039 99.1429 325.8 99.1429Z" fill="#FF3F2F"/>
<path d="M411.09 122.047C403.861 122.047 397.445 120.585 391.841 117.661C386.237 114.737 381.81 110.717 378.561 105.6C375.394 100.402 373.81 94.4728 373.81 87.8128C373.81 81.1529 375.394 75.2645 378.561 70.1477C381.81 65.0309 386.237 61.0511 391.841 58.2085C397.445 55.2846 403.861 53.8226 411.09 53.8226C418.318 53.8226 424.735 55.2846 430.339 58.2085C436.024 61.0511 440.45 65.0309 443.618 70.1477C446.785 75.2645 448.369 81.1529 448.369 87.8128C448.369 94.4728 446.785 100.402 443.618 105.6C440.45 110.717 436.024 114.737 430.339 117.661C424.735 120.585 418.318 122.047 411.09 122.047ZM411.09 103.651C413.77 103.651 416.125 103.041 418.156 101.823C420.267 100.605 421.932 98.818 423.151 96.4627C424.369 94.0261 424.978 91.1428 424.978 87.8128C424.978 84.4828 424.369 81.6808 423.151 79.4066C421.932 77.0513 420.267 75.2645 418.156 74.0462C416.125 72.8279 413.77 72.2188 411.09 72.2188C408.491 72.2188 406.135 72.8279 404.024 74.0462C401.993 75.2645 400.328 77.0513 399.029 79.4066C397.81 81.6808 397.201 84.4828 397.201 87.8128C397.201 91.1428 397.81 94.0261 399.029 96.4627C400.328 98.818 401.993 100.605 404.024 101.823C406.135 103.041 408.491 103.651 411.09 103.651Z" fill="#FF3F2F"/>
<path d="M255.207 44.0763C257.806 46.4317 261.217 47.6094 265.441 47.6094C269.745 47.6094 273.157 46.4317 275.674 44.0763C278.273 41.6398 279.573 38.5941 279.573 34.9392C279.573 31.4468 278.273 28.6041 275.674 26.4112C273.075 24.1371 269.664 23 265.441 23C261.217 23 257.806 24.1777 255.207 26.533C252.608 28.8884 251.309 31.8123 251.309 35.3047C251.309 38.7971 252.608 41.721 255.207 44.0763Z" fill="#F89A2E"/>
<path d="M184.347 213.339L184.347 188.822C184.191 172.09 190.563 156.304 202.28 144.366C213.998 132.427 229.662 125.762 246.394 125.606L471.946 125.604L472.383 172.434L246.831 172.437C238.12 172.518 231.097 179.674 231.178 188.385L231.178 212.902L184.347 213.339Z" fill="url(#paint0_linear_1401_435)"/>
<defs>
<linearGradient id="paint0_linear_1401_435" x1="302.315" y1="205.924" x2="235.362" y2="140.209" gradientUnits="userSpaceOnUse">
<stop stop-color="#F7902E"/>
<stop offset="1" stop-color="#F7B02E"/>
</linearGradient>
</defs>
</svg>
