<svg width="130" height="130" viewBox="0 0 130 130" fill="none" xmlns="http://www.w3.org/2000/svg">
<path fill-rule="evenodd" clip-rule="evenodd" d="M64.9775 0C100.871 0 130 29.1294 130 65.0225C130 100.871 100.871 130 64.9775 130C29.0843 130 0 100.871 0 65.0225C0 29.1294 29.0843 0 64.9775 0Z" fill="#FF3F2F"/>
<path d="M97.5156 38.6848C97.5156 36.9298 96.4323 35.7598 94.8073 35.7598L35.224 35.7598C33.599 35.7598 32.5156 36.9298 32.5156 38.6848V44.5348C32.5156 46.2898 33.599 47.4598 35.224 47.4598L94.8073 47.4598C96.4323 47.4598 97.5156 46.2898 97.5156 44.5348V38.6848Z" fill="white"/>
<path d="M77.2031 62.0969C77.2031 60.3419 76.4583 59.1719 75.3412 59.1719L34.3776 59.1719C33.2604 59.1719 32.5156 60.3419 32.5156 62.0969V67.9469C32.5156 69.7019 33.2604 70.8719 34.3776 70.8719H75.3412C76.4583 70.8719 77.2031 69.7019 77.2031 67.9469V62.0969Z" fill="white"/>
<path d="M97.5156 85.4816C97.5156 83.7266 96.4323 82.5566 94.8073 82.5566L35.224 82.5566C33.599 82.5566 32.5156 83.7266 32.5156 85.4816V91.3316C32.5156 93.0866 33.599 94.2566 35.224 94.2566H94.8073C96.4323 94.2566 97.5156 93.0866 97.5156 91.3316V85.4816Z" fill="white"/>
</svg>
